Coordinates
version=1
nRows=14
nColumns=24
inDegrees=yes

Units are S.I. units (second, meters, Newtons, ...)
Angles are in degrees.

endheader
time	pelvis_tilt	pelvis_list	pelvis_rotation	pelvis_tx	pelvis_ty	pelvis_tz	hip_flexion_r	hip_adduction_r	hip_rotation_r	knee_angle_r	ankle_angle_r	subtalar_angle_r	mtp_angle_r	hip_flexion_l	hip_adduction_l	hip_rotation_l	knee_angle_l	ankle_angle_l	subtalar_angle_l	mtp_angle_l	lumbar_extension	lumbar_bending	lumbar_rotation
      3.38000000	     -4.16036044	      3.89394098	     -4.47880132	     -1.76919299	     -0.02618863	     -0.35078350	    -14.70696325	     -2.74077685	     -4.57497324	    -11.22505953	      8.31177975	      5.57329757	     23.13217124	     25.56331922	      3.57069683	    -14.25056491	     -0.79783308	     16.76678561	      7.45487048	    -87.38097909	     -2.22002833	     -5.02588763	      8.21757569
      3.38500000	     -4.20039930	      3.97306194	     -4.45801398	     -1.76152954	     -0.02686821	     -0.35143199	    -14.66803183	     -3.01647421	     -4.82691409	    -12.11042533	      7.92793460	      6.24257375	     23.52918133	     25.87471423	      3.73955738	    -13.56247444	     -1.89212755	     16.64139975	      6.57367226	    -86.52554424	     -2.10334563	     -5.13850727	      8.14148004
      3.39000000	     -4.20297379	      4.06774999	     -4.45156505	     -1.75369800	     -0.02753314	     -0.35211059	    -14.65843956	     -3.32865153	     -5.12433196	    -12.99757775	      7.37372887	      6.89763080	     24.38177471	     26.11185758	      3.94013498	    -12.84515227	     -3.02112723	     16.35905238	      5.62043623	    -84.84562305	     -2.00033014	     -5.26788588	      8.14740965
      3.39500000	     -4.18505249	      4.26023372	     -4.53588679	     -1.74564212	     -0.02816228	     -0.35266674	    -14.65751881	     -3.76659479	     -5.23752258	    -13.86214098	      6.59855866	      7.35726446	     25.88249630	     26.28819655	      4.21117995	    -12.44895867	     -4.15595879	     15.87000308	      4.85399071	    -82.10423017	     -1.86629772	     -5.50647956	      8.20867509
      3.40000000	     -4.24539698	      4.33118708	     -4.50858377	     -1.73762222	     -0.02888905	     -0.35337799	    -14.50930753	     -4.05433991	     -5.53817171	    -14.91191206	      5.97056017	      7.99000012	     26.23862729	     26.51368034	      4.40170824	    -11.87212118	     -5.20026481	     15.48718279	      3.93444575	    -81.63893720	     -1.68392498	     -5.61073754	      8.17900669
      3.40500000	     -4.26519932	      4.46680625	     -4.47221699	     -1.72949066	     -0.02955313	     -0.35414814	    -14.37813940	     -4.42872547	     -5.91261926	    -15.98296862	      5.16052816	      8.58935165	     27.04218479	     26.62593792	      4.68422289	    -11.29844413	     -6.12315625	     14.87321199	      2.99128777	    -80.92063564	     -1.52433673	     -5.78184403	      8.17266130
      3.41000000	     -4.20505099	      4.65230846	     -4.52394146	     -1.72133962	     -0.03004417	     -0.35487467	    -14.29196755	     -4.89562565	     -6.18707069	    -17.01788733	      3.93531076	      9.02354610	     29.08723633	     26.58152482	      4.99539039	    -10.93123948	     -6.92112779	     14.05495950	      2.21328643	    -79.51479412	     -1.43865250	     -6.00597835	      8.19366557
      3.41500000	     -4.28802514	      4.86203900	     -4.50495124	     -1.71317173	     -0.03061655	     -0.35567231	    -13.96564944	     -5.37336144	     -6.52443416	    -18.29056918	      3.01352842	      9.66458942	     29.38441558	     26.66413911	      5.33759280	    -10.62459760	     -7.61319191	     13.24303300	      1.48731743	    -79.47692952	     -1.20507582	     -6.24749236	      8.17477547
      3.42000000	     -4.33752220	      5.15300014	     -4.45648962	     -1.70493880	     -0.03106438	     -0.35654431	    -13.63363944	     -5.95622572	     -6.98043900	    -19.60288060	      1.85695737	     10.26694976	     29.94231390	     26.62937539	      5.79223098	    -10.20563355	     -8.12557949	     12.30140524	      0.69753319	    -79.49872313	     -0.99462399	     -6.57592989	      8.12002387
      3.42500000	     -4.25839454	      5.50068572	     -4.33389518	     -1.69677366	     -0.03130895	     -0.35754077	    -13.44904342	     -6.62055405	     -7.65201002	    -20.75553206	     -0.03952377	     10.55787727	     32.93228672	     26.40985894	      6.35468437	     -9.69125816	     -8.52761293	     11.34355271	     -0.01865841	    -79.57652860	     -0.94373109	     -6.97350485	      8.00823538
      3.43000000	     -4.38668712	      5.91270923	     -4.26961294	     -1.68862298	     -0.03163422	     -0.35845619	    -12.89503693	     -7.36492382	     -8.11817861	    -22.24505179	     -1.46298470	     11.16542151	     33.21491221	     26.41122391	      6.91803946	     -9.38569783	     -8.89889469	     10.42520807	     -0.59316927	    -79.74571785	     -0.65842448	     -7.42504727	      7.92170067
      3.43500000	     -4.36405079	      6.38033725	     -4.11677217	     -1.68058695	     -0.03174045	     -0.35955453	    -12.51844159	     -8.19292603	     -8.80425384	    -23.56815256	     -3.59846497	     11.43344735	     35.70445396	     26.20866599	      7.61286521	     -8.77374722	     -9.17022493	      9.52648004	     -1.33712734	    -80.24327839	     -0.56832228	     -7.93554724	      7.76821278
      3.44000000	     -4.51445935	      6.86941233	     -4.00049889	     -1.67263521	     -0.03196713	     -0.36059457	    -11.82286043	     -9.05630372	     -9.32017562	    -25.16838560	     -5.41349008	     11.90385518	     36.08144777	     26.22875964	      8.28077450	     -8.26656100	     -9.51813349	      8.74380131	     -1.98650343	    -80.39015887	     -0.29875163	     -8.45844741	      7.65501171
      3.44500000	     -4.61233623	      7.39380200	     -3.78467664	     -1.66470168	     -0.03206084	     -0.36171409	    -11.21953228	     -9.93926707	     -9.84552366	    -26.62023816	     -7.72932195	     12.05883566	     37.62773051	     26.18300807	      9.04113227	     -7.60034831	     -9.86547148	      7.96079329	     -2.73243268	    -80.35166348	     -0.10609639	     -9.03449121	      7.34532091
